<?xml version="1.0" encoding="utf-8"?>
<!-- Generator: Adobe Illustrator 23.0.4, SVG Export Plug-In . SVG Version: 6.00 Build 0)  -->
<svg version="1.1" id="analytics" xmlns="http://www.w3.org/2000/svg" xmlns:xlink="http://www.w3.org/1999/xlink" x="0px" y="0px"
	 viewBox="0 0 1000 1000" style="enable-background:new 0 0 1000 1000;" xml:space="preserve">
<style type="text/css">
	.st0{fill:#BCBEC0;}
</style>
<rect x="322.91" y="635.1" transform="matrix(0.4793 -0.8776 0.8776 0.4793 -361.1459 680.1799)" class="st0" width="139.55" height="18.74"/>
<rect x="610.75" y="414.69" transform="matrix(0.9698 -0.244 0.244 0.9698 -82.6313 176.498)" class="st0" width="120.93" height="14.3"/>
<rect x="335.42" y="278.39" transform="matrix(0.6575 -0.7535 0.7535 0.6575 -140.3447 376.9188)" class="st0" width="17.96" height="128.87"/>
<rect x="253.33" y="491.91" transform="matrix(0.9805 -0.1967 0.1967 0.9805 -92.1933 70.0094)" class="st0" width="106.03" height="14.41"/>
<rect x="588.67" y="553.76" transform="matrix(0.7345 -0.6787 0.6787 0.7345 -248.9117 563.9655)" class="st0" width="15.11" height="92.6"/>
<rect x="487.99" y="294.36" transform="matrix(0.2517 -0.9678 0.9678 0.2517 107.7943 743.989)" class="st0" width="94.01" height="15.86"/>
<path class="st0" d="M398.6,518.09v30.75c0.84,0.89,1.69,1.77,2.56,2.63v-33.34c4.71-0.43,8.62-3.6,10.15-7.9h31.56v41.72h-41.23
	c0.88,0.87,1.77,1.72,2.67,2.56h38.56v24.37c0.85,0.34,1.7,0.66,2.56,0.98v-25.35h31.48c1.21,4.77,5.3,8.41,10.3,8.95v24.09
	c0.43,0,0.85,0.02,1.28,0.02c0.43,0,0.85-0.01,1.28-0.02v-24.09c5.01-0.54,9.08-4.17,10.3-8.95h31.48v25.35
	c0.86-0.32,1.71-0.64,2.56-0.98v-24.37h38.56c0.9-0.84,1.8-1.69,2.67-2.56h-41.23v-41.72h41.72v41.24c0.87-0.86,1.72-1.74,2.56-2.63
	v-38.62h24.84c0.34-0.85,0.68-1.7,1-2.56h-25.84V465.9h33.82c0.01-0.69,0.03-1.38,0.03-2.07c0-0.16-0.01-0.32-0.01-0.49h-33.84
	v-41.78h26.43c-0.31-0.86-0.63-1.71-0.96-2.56h-25.47v-31.11c2.21-0.24,4.24-1.08,5.92-2.36c-5.01-6.12-10.59-11.75-16.66-16.81
	c-1.31,1.7-2.19,3.76-2.43,6.01h-31.11v-25.95c-0.85-0.34-1.7-0.66-2.56-0.98v26.93h-41.78v-34.62c-0.43,0-0.85-0.02-1.28-0.02
	c-0.43,0-0.85,0.01-1.28,0.02v34.62h-41.78V347.8c-0.86,0.32-1.71,0.64-2.56,0.98v25.95h-40.23c-1.38,1.33-2.72,2.69-4.04,4.08V419
	h-25.47c-0.33,0.85-0.65,1.7-0.96,2.56h26.43v41.78h-33.84c0,0.16-0.01,0.32-0.01,0.49c0,0.69,0.02,1.38,0.03,2.07h33.82v28.48
	c-5.91,0.72-10.5,5.76-10.5,11.86c0,0.49,0.04,0.97,0.1,1.44h-15.44c0.32,0.86,0.66,1.71,1,2.56h15.04
	c0.01,0.02,0.01,0.03,0.02,0.04l-10.56,9.82c0.8,1.57,1.65,3.12,2.51,4.65l10.82-10.07C393.44,516.53,395.89,517.76,398.6,518.09z
	 M575.83,387.89V419h-31.11c-0.2-1.87-0.84-3.62-1.81-5.14l26.6-28.63C571.26,386.69,573.44,387.64,575.83,387.89z M534.11,377.29
	h31.11c0.15,1.37,0.54,2.66,1.11,3.86l-27.02,29.09c-1.53-0.99-3.29-1.64-5.19-1.85V377.29z M534.11,432.17
	c5.58-0.6,10.01-5.04,10.61-10.61h31.11v41.78h-41.72V432.17z M534.11,465.9h41.72v41.78h-41.72V465.9z M531.55,551.95h-31.12
	c0-0.13,0.02-0.26,0.02-0.39c0-5.06-3.16-9.39-7.61-11.13l11.39-30.2h27.32V551.95z M531.55,507.68h-26.36l15.75-41.78h10.61V507.68
	z M531.55,463.34h-9.64l9.64-25.58V463.34z M489.77,377.29h41.78v31.1c-5.58,0.6-10.01,5.04-10.61,10.61h-31.17V377.29z
	 M489.77,421.56h31.17c0.48,4.5,3.47,8.26,7.54,9.85l-12.04,31.93h-26.67V421.56z M489.77,465.9h25.71l-15.75,41.78h-9.95V465.9z
	 M489.77,510.23h8.99l-8.99,23.84V510.23z M487.22,537.15l-14.93-26.91h14.93V537.15z M487.22,507.68h-16.35l-18.89-34.03
	c2.22-1.93,3.73-4.66,4.06-7.75h31.18V507.68z M445.43,377.29h41.78V419h-41.78V377.29z M445.43,421.56h41.78v41.78h-31.18
	c-0.6-5.57-5.04-10.01-10.61-10.61V421.56z M445.43,476.51c0.71-0.08,1.39-0.22,2.06-0.41l17.52,31.58h-19.58V476.51z
	 M445.43,510.23h21l16.94,30.54c-4.04,1.93-6.84,6.03-6.84,10.8c0,0.13,0.02,0.26,0.02,0.39h-31.12V510.23z M442.88,507.68h-30.95
	c0.06-0.48,0.09-0.95,0.09-1.44c0-1.99-0.5-3.86-1.35-5.52l27.23-25.93c1.48,0.91,3.17,1.52,4.98,1.72V507.68z M401.16,377.29h41.71
	V419h-41.71V377.29z M401.16,421.56h41.71v31.17c-5.57,0.6-10.01,5.04-10.61,10.61h-31.1V421.56z M401.16,465.9h31.1
	c0.21,1.96,0.9,3.78,1.94,5.34l-26.83,25.55c-1.75-1.36-3.88-2.24-6.21-2.46V465.9z"/>
<g>
	<g id="XMLID_66_">
		<g>
			<rect x="253.03" y="174.03" class="st0" width="3.71" height="34.64"/>
			<rect x="234.75" y="260.8" class="st0" width="3.71" height="9.88"/>
			<rect x="271.27" y="194.7" class="st0" width="3.71" height="13.96"/>
			<rect x="271.27" y="235.81" class="st0" width="3.71" height="34.88"/>
			<rect x="253.03" y="239.53" class="st0" width="3.71" height="31.16"/>
			<rect x="271.27" y="174.03" class="st0" width="3.71" height="14.97"/>
			<path class="st0" d="M199.67,243.81c12.72,0,23.07-10.35,23.07-23.08c0-12.72-10.35-23.08-23.07-23.08
				c-12.73,0-23.08,10.35-23.08,23.08C176.59,233.45,186.94,243.81,199.67,243.81z M233.25,220.73c0,16.79-12.38,30.74-28.49,33.2
				v8.58h4.89v25.31h-19.99v-25.31h4.9v-8.58c-16.11-2.47-28.49-16.42-28.49-33.2c0-18.52,15.07-33.59,33.59-33.59
				C218.19,187.14,233.25,202.21,233.25,220.73z M205.95,284.11v-17.89h-12.57v17.89H205.95z"/>
			<polygon class="st0" points="192.49,219.05 192.49,211.22 189.27,211.22 189.27,207.51 196.19,207.51 196.19,219.05 			"/>
			<rect x="215.8" y="252.46" class="st0" width="3.71" height="8.34"/>
			<path class="st0" d="M204.64,211.22v4.91h2.64v-4.91H204.64z M200.93,207.51h10.05v12.33h-10.05V207.51z"/>
			<rect x="253.03" y="212.75" class="st0" width="3.71" height="21.84"/>
			<rect x="197.81" y="174.03" class="st0" width="3.71" height="11.17"/>
			<polygon class="st0" points="207.07,232.33 207.07,224.5 203.86,224.5 203.86,220.79 210.78,220.79 210.78,232.33 			"/>
			<rect x="215.8" y="264.37" class="st0" width="3.71" height="6.32"/>
			<rect x="271.27" y="215.14" class="st0" width="3.71" height="14.97"/>
			<rect x="234.75" y="174.03" class="st0" width="3.71" height="82.22"/>
			<path class="st0" d="M193.02,224.5v4.91h2.64v-4.91H193.02z M199.37,220.79v12.32h-10.06v-12.32H199.37z"/>
			<rect x="215.8" y="174.03" class="st0" width="3.71" height="14.97"/>
		</g>
	</g>
</g>
<g>
	<g id="XMLID_64_">
		<g>
			<polygon class="st0" points="137.8,538.5 137.8,540.32 131.48,540.32 131.48,538.5 130.44,538.5 130.44,535.82 131.48,535.82 
				131.48,534 137.8,534 137.8,535.82 139.56,535.82 139.56,538.5 			"/>
			<polygon class="st0" points="116.82,550.3 116.82,486.65 169.03,486.65 169.03,489.32 119.49,489.32 119.49,550.3 			"/>
			<polygon class="st0" points="131.48,511.29 131.48,509.47 130.63,509.47 130.63,506.79 131.48,506.79 131.48,504.97 
				137.8,504.97 137.8,506.79 148.87,506.79 148.87,509.47 137.8,509.47 137.8,511.29 			"/>
			<polygon class="st0" points="164.58,534.49 162.31,533.08 168.29,523.47 174.14,523.47 178.86,515.64 181.14,517.01 
				175.65,526.14 169.77,526.14 			"/>
			<polygon class="st0" points="198.36,492.93 198.36,495.61 194.43,495.61 188.17,505.31 185.93,503.86 192.97,492.93 			"/>
			<polygon class="st0" points="131.48,529.92 131.48,528.1 130.44,528.1 130.44,525.42 131.48,525.42 131.48,523.6 137.8,523.6 
				137.8,525.42 139.56,525.42 139.56,528.1 137.8,528.1 137.8,529.92 			"/>
			<rect x="192.06" y="483.66" class="st0" width="6.32" height="6.32"/>
			<polygon class="st0" points="151.41,546.34 154.12,543.3 156.11,545.08 152.61,549.02 137.8,549.02 137.8,550.84 131.48,550.84 
				131.48,549.02 130.63,549.02 130.63,546.34 131.48,546.34 131.48,544.52 137.8,544.52 137.8,546.34 			"/>
			<rect x="182.45" y="483.66" class="st0" width="6.32" height="6.32"/>
			<path class="st0" d="M199.27,543.21l-6.02,6.78l9.64,8.57l6.03-6.78L199.27,543.21z M125.35,495.61v59.64h48.2v-6.3
				c-0.6,0.04-1.21,0.08-1.81,0.08c-5.93,0-11.64-2.18-16.08-6.12c-9.98-8.87-10.88-24.21-2.01-34.18
				c4.59-5.16,11.19-8.12,18.11-8.12c0.6,0,1.2,0.03,1.79,0.07v-5.06H125.35z M184.18,535.86c2.95-3.32,4.43-7.59,4.18-12.03
				c-0.26-4.44-2.24-8.5-5.56-11.46c-3.05-2.71-6.97-4.2-11.05-4.2c-4.75,0-9.29,2.04-12.44,5.58c-2.95,3.32-4.43,7.59-4.17,12.03
				c0.26,4.44,2.23,8.51,5.55,11.46c3.05,2.71,6.97,4.21,11.05,4.21C176.5,541.44,181.03,539.41,184.18,535.86z M176.23,501.01
				c4.29,0.8,8.3,2.76,11.61,5.7c4.83,4.3,7.7,10.22,8.08,16.68c0.3,5.22-1.04,10.28-3.84,14.58l4.62,4.11l2.35-2.64l13.63,12.12
				l-9.58,10.77l-13.64-12.12l2.34-2.64l-4.63-4.11c-3.16,2.62-6.94,4.38-10.96,5.14v9.33h-53.55v-64.98h53.55V501.01z"/>
			<polygon class="st0" points="131.48,520.97 131.48,519.14 130.63,519.14 130.63,516.47 131.48,516.47 131.48,514.65 
				137.8,514.65 137.8,516.47 139.76,516.47 139.76,519.14 137.8,519.14 137.8,520.97 			"/>
		</g>
	</g>
</g>
<g>
	<path class="st0" d="M340.63,793.79l-7.26-6.45c4.39-6.75,6.51-14.7,6.03-22.89c-0.6-10.14-5.1-19.44-12.69-26.19
		c-6.97-6.2-15.94-9.61-25.25-9.61c-10.86,0-21.22,4.65-28.43,12.76c-13.93,15.67-12.52,39.75,3.15,53.68
		c6.27,5.57,14.16,8.88,22.46,9.5v10.7h-30.76v-2.86h-9.93v9.92h9.93v-2.86h30.76v9.51h-30.76v-2.86h-9.93v9.93h9.93v-2.86h30.76
		v10.46h-30.76v-2.86h-9.93v9.93h9.93v-2.86h34.95v-14.65v-2.1v-26.43c8.4-0.31,16.44-3.4,22.85-8.71l7.27,6.46l-3.69,4.14
		l21.41,19.04l15.04-16.91l-21.41-19.04L340.63,793.79z M298.65,764.58v23.84c-4.35-0.56-8.45-2.41-11.76-5.36
		c-4.38-3.89-6.98-9.25-7.32-15.1c-0.34-5.85,1.61-11.48,5.5-15.85c4.16-4.68,10.13-7.36,16.39-7.36c5.37,0,10.54,1.97,14.56,5.54
		c4.38,3.89,6.98,9.25,7.32,15.1c0.34,5.85-1.61,11.48-5.5,15.85c-3.85,4.32-9.25,6.94-14.99,7.31v-19.78h9.04v-4.2H298.65z
		 M359.8,809.03l-9.46,10.64l-15.14-13.46l9.46-10.64L359.8,809.03z"/>
	<polygon class="st0" points="357.8,761.71 357.8,764.58 341.97,764.58 341.97,768.78 357.8,768.78 357.8,771.64 367.73,771.64 
		367.73,761.71 	"/>
</g>
<g>
	<path class="st0" d="M864.53,350.74v-15.08h-23.79v-1h-3.41v4.95h3.41v-0.53h20.38v11.66h-2.33v6.76
		c-6.94-9.2-17.96-15.15-30.34-15.15h-1.7v39.7h39.7v-1.7c0-7.99-2.48-15.41-6.71-21.54h7.12v-8.06H864.53z M862.99,378.63h-32.84
		V345.8C847.87,346.66,862.13,360.92,862.99,378.63z"/>
	<rect x="786.18" y="334.66" class="st0" width="3.41" height="26.33"/>
	<rect x="797.2" y="334.66" class="st0" width="3.41" height="16"/>
	<rect x="808.33" y="334.66" class="st0" width="3.41" height="10.84"/>
	<rect x="818.12" y="334.66" class="st0" width="3.41" height="8"/>
	<rect x="774.82" y="334.66" class="st0" width="3.41" height="90.42"/>
	<rect x="827.65" y="334.66" class="st0" width="3.41" height="5.42"/>
	<path class="st0" d="M858.79,417.88h-14.56c8.3-6.98,13.58-17.42,13.58-29.09v-1.7h-36.29v-36.29h-1.7c-20.95,0-38,17.04-38,37.99
		c0,6.25,1.52,12.15,4.2,17.35h-2.17v8.07h2.33v10.88h3.41V414.2h2.01c6.96,7.72,17.03,12.58,28.22,12.58
		c7.19,0,13.92-2.01,19.67-5.5h19.3v2.41h8.06v-8.06h-8.06V417.88z"/>
</g>
<g>
	<g id="XMLID_63_">
		<g>
			<rect x="699.04" y="703.31" class="st0" width="14.79" height="2.74"/>
			<path class="st0" d="M672.73,742.31v-13.2h-9.28v13.2H672.73z M668.09,712.58c9.39,0,17.02-7.63,17.02-17.02
				c0-9.39-7.63-17.02-17.02-17.02c-9.39,0-17.02,7.63-17.02,17.02C651.07,704.94,658.7,712.58,668.09,712.58z M660.72,745.04
				v-18.67h3.61v-6.33c-11.88-1.82-21.01-12.11-21.01-24.49c0-13.66,11.11-24.77,24.78-24.77c13.66,0,24.77,11.11,24.77,24.77
				c0,12.39-9.13,22.67-21.01,24.49v6.33h3.61v18.67H660.72z"/>
			<rect x="674.09" y="664.62" class="st0" width="39.73" height="2.73"/>
			<rect x="699.04" y="693.85" class="st0" width="14.79" height="2.74"/>
			<rect x="693.96" y="674.16" class="st0" width="19.86" height="2.73"/>
			<polygon class="st0" points="650.65,671.84 650.65,655.82 721.76,655.82 721.76,739.87 677.79,739.87 677.79,737.13 
				719.03,737.13 719.03,658.56 653.39,658.56 653.39,671.84 			"/>
			<rect x="699.04" y="712.83" class="st0" width="14.79" height="2.74"/>
			<polygon class="st0" points="679.05,689.86 668.79,701.71 664.49,696.11 659.47,702.12 657.37,700.37 664.58,691.74 
				668.92,697.38 676.99,688.07 			"/>
			<rect x="699.04" y="684.33" class="st0" width="14.79" height="2.74"/>
			<rect x="681.79" y="722.14" class="st0" width="32.03" height="2.74"/>
			<polygon class="st0" points="658.08,739.87 650.65,739.87 650.65,719.88 653.39,719.88 653.39,737.13 658.08,737.13 			"/>
		</g>
	</g>
</g>
<g>
	<path class="st0" d="M534.3,203.49c3.31,0,6-2.69,6-6c0-1.5-0.55-2.86-1.46-3.92l9.22-11.09c0.68,0.27,1.42,0.42,2.19,0.42
		c0.83,0,1.62-0.17,2.34-0.48l7.7,7.01c-0.71,0.99-1.14,2.2-1.14,3.5c0,3.31,2.69,6,6,6c3.31,0,6-2.69,6-6
		c0-1.37-0.47-2.63-1.24-3.64l6.62-7.71c1.02,0.82,2.32,1.31,3.73,1.31c3.31,0,6-2.69,6-6c0-1.65-0.67-3.14-1.75-4.23l7.9-9.26
		c1.02,0.8,2.3,1.28,3.68,1.28c3.31,0,6-2.69,6-6c0-3.31-2.69-6-6-6c-3.31,0-6,2.69-6,6c0,0.84,0.18,1.64,0.49,2.37l-8.62,10.09
		c-0.54-0.16-1.12-0.25-1.71-0.25c-3.31,0-6,2.69-6,6c0,0.82,0.17,1.6,0.46,2.31l-7.1,8.27c-0.75-0.34-1.59-0.54-2.47-0.54
		c-0.93,0-1.82,0.22-2.61,0.6l-7.6-6.92c0.81-1.02,1.3-2.32,1.3-3.72c0-3.31-2.69-6-6-6c-3.31,0-6,2.69-6,6
		c0,1.48,0.54,2.83,1.43,3.88l-9.23,11.1c-0.67-0.26-1.39-0.4-2.14-0.4c-3.31,0-6,2.69-6,6C528.29,200.8,530.99,203.49,534.3,203.49
		z M596.1,155.61c1.7,0,3.08,1.38,3.08,3.08c0,1.7-1.38,3.08-3.08,3.08s-3.08-1.38-3.08-3.08
		C593.02,156.99,594.4,155.61,596.1,155.61z M580.26,173.82c1.7,0,3.08,1.38,3.08,3.08c0,1.7-1.38,3.08-3.08,3.08
		c-1.7,0-3.08-1.38-3.08-3.08C577.17,175.21,578.56,173.82,580.26,173.82z M565.15,189.87c1.7,0,3.08,1.38,3.08,3.08
		c0,1.7-1.38,3.08-3.08,3.08c-1.7,0-3.08-1.38-3.08-3.08C562.06,191.25,563.45,189.87,565.15,189.87z M550.24,173.82
		c1.7,0,3.08,1.38,3.08,3.08c0,1.7-1.38,3.08-3.08,3.08c-1.7,0-3.08-1.38-3.08-3.08C547.16,175.21,548.54,173.82,550.24,173.82z
		 M534.3,194.41c1.7,0,3.08,1.38,3.08,3.08c0,1.7-1.38,3.08-3.08,3.08c-1.7,0-3.08-1.38-3.08-3.08
		C531.21,195.79,532.6,194.41,534.3,194.41z"/>
	<path class="st0" d="M602.1,216.9v-47.49l-37.01,36.5L550.1,192.8l-21.01,24.1h-3.42v2.92h78.62v-2.92H602.1z"/>
	<polygon class="st0" points="532.25,154.96 535.17,154.96 535.17,144.68 529.09,144.68 529.09,147.6 532.25,147.6 	"/>
	<path class="st0" d="M549.07,144.68h-8.7v10.77h8.7V144.68z M546.15,152.53h-2.87v-4.93h2.87V152.53z"/>
	<path class="st0" d="M529.36,168.4h8.7v-10.77h-8.7V168.4z M532.28,160.54h2.86v4.94h-2.86V160.54z"/>
	<polygon class="st0" points="548.88,167.91 548.88,157.63 542.8,157.63 542.8,160.54 545.96,160.54 545.96,167.91 	"/>
	<polygon class="st0" points="557.03,154.54 559.95,154.54 559.95,144.25 553.87,144.25 553.87,147.17 557.03,147.17 	"/>
	<path class="st0" d="M573.85,144.25h-8.7v10.77h8.7V144.25z M570.93,152.11h-2.87v-4.93h2.87V152.11z"/>
	<path class="st0" d="M554.14,167.98h8.7V157.2h-8.7V167.98z M557.06,160.12h2.87v4.94h-2.87V160.12z"/>
	<polygon class="st0" points="573.66,167.48 573.66,157.2 567.58,157.2 567.58,160.12 570.74,160.12 570.74,167.48 	"/>
	<path class="st0" d="M587.28,144.25h-8.7v10.77h8.7V144.25z M584.37,152.11h-2.87v-4.93h2.87V152.11z"/>
	<polygon class="st0" points="532.25,182.08 535.17,182.08 535.17,171.8 529.09,171.8 529.09,174.72 532.25,174.72 	"/>
	<polygon class="st0" points="593.96,149.92 596.88,149.92 596.88,144.54 590.8,144.54 590.8,147.46 593.96,147.46 	"/>
</g>
<path class="st0" d="M487.28,602.32c-75.28,0-136.53-61.25-136.53-136.53c0-75.28,61.25-136.53,136.53-136.53
	s136.53,61.25,136.53,136.53C623.81,541.08,562.56,602.32,487.28,602.32z M487.28,344.26c-67.01,0-121.53,54.52-121.53,121.53
	s54.52,121.53,121.53,121.53c67.01,0,121.53-54.52,121.53-121.53S554.29,344.26,487.28,344.26z"/>
<path class="st0" d="M820.14,483.42c-56.15,0-101.84-45.68-101.84-101.84s45.68-101.84,101.84-101.84
	c56.15,0,101.84,45.68,101.84,101.84S876.29,483.42,820.14,483.42z M820.14,294.74c-47.88,0-86.84,38.96-86.84,86.84
	s38.96,86.84,86.84,86.84s86.84-38.96,86.84-86.84S868.02,294.74,820.14,294.74z"/>
<path class="st0" d="M562.2,272.87c-51.71,0-93.79-42.07-93.79-93.79s42.07-93.79,93.79-93.79s93.79,42.07,93.79,93.79
	S613.91,272.87,562.2,272.87z M562.2,100.29c-43.44,0-78.79,35.34-78.79,78.79s35.34,78.79,78.79,78.79
	c43.44,0,78.79-35.34,78.79-78.79S605.64,100.29,562.2,100.29z"/>
<path class="st0" d="M223.74,337.79c-61.83,0-112.12-50.3-112.12-112.12c0-61.83,50.3-112.12,112.12-112.12
	c61.83,0,112.12,50.3,112.12,112.12C335.86,287.5,285.56,337.79,223.74,337.79z M223.74,128.54c-53.55,0-97.12,43.57-97.12,97.12
	s43.57,97.12,97.12,97.12s97.12-43.57,97.12-97.12S277.29,128.54,223.74,128.54z"/>
<path class="st0" d="M164.11,625.09c-55.76,0-101.13-45.36-101.13-101.12s45.36-101.13,101.13-101.13s101.13,45.36,101.13,101.13
	S219.88,625.09,164.11,625.09z M164.11,437.84c-47.49,0-86.13,38.64-86.13,86.13c0,47.49,38.64,86.12,86.13,86.12
	s86.13-38.64,86.13-86.12C250.24,476.48,211.6,437.84,164.11,437.84z"/>
<path class="st0" d="M306.26,908.43c-60.03,0-110.9-46.55-115.3-107.34c-2.23-30.82,7.68-60.66,27.9-84.03
	c20.22-23.37,48.32-37.46,79.14-39.69c63.62-4.6,119.12,43.42,123.72,107.04l0,0c2.23,30.82-7.68,60.66-27.9,84.03
	c-20.22,23.37-48.32,37.46-79.14,39.69C311.86,908.33,309.05,908.43,306.26,908.43z M306.41,692.07c-2.43,0-4.87,0.09-7.33,0.26
	c-26.82,1.94-51.28,14.21-68.88,34.54s-26.22,46.31-24.28,73.13c4,55.37,52.31,97.16,107.67,93.16
	c26.82-1.94,51.28-14.21,68.88-34.54s26.22-46.31,24.28-73.13l0,0C402.94,732.58,358.65,692.07,306.41,692.07z"/>
<path class="st0" d="M682.38,798.32c-50.75,0-93.77-39.36-97.49-90.76c-3.89-53.79,36.71-100.72,90.5-104.61
	c53.81-3.9,100.72,36.71,104.61,90.5c3.89,53.79-36.71,100.72-90.5,104.61C687.11,798.24,684.73,798.32,682.38,798.32z M682.5,617.7
	c-2,0-4,0.07-6.03,0.22c-45.54,3.29-79.92,43.02-76.63,88.56c3.15,43.52,39.57,76.84,82.54,76.84c2,0,4-0.07,6.03-0.22
	c45.54-3.29,79.92-43.02,76.63-88.56C761.89,651.02,725.47,617.7,682.5,617.7z"/>
</svg>
